<svg xmlns="http://www.w3.org/2000/svg" viewBox="0 0 108 108" width="432" height="432">
  <title>ShineFS 先天八卦核心资产</title>
  <desc>透明底八卦标记：图面上方起顺时针为乾、兑、离、震、坤、巽、坎、艮；中央为太极天池。</desc>

  <!-- This SVG is the review/source artwork for res/drawable/bagua_core.xml. -->
  <g fill="none" stroke-linejoin="round">
    <circle cx="54" cy="54" r="35" stroke="#B8955A" stroke-width="2.1"/>
    <circle cx="54" cy="54" r="31.5" stroke="#B8955A" stroke-width="1.7"/>
    <circle cx="54" cy="54" r="30" stroke="#7E6A44" stroke-width="0.8"/>
  </g>

  <!-- 坎：阴、阳、阴；品牌图位：左 -->
  <g transform="rotate(270 54 54)" fill="#D9BC7A">
    <path d="M48 24.5h4.3v2.2H48zM55.7 24.5H60v2.2h-4.3z"/>
    <path d="M48 28.8h12V31H48z"/>
    <path d="M48 33.1h4.3v2.2H48zM55.7 33.1H60v2.2h-4.3z"/>
  </g>
  <!-- 艮：阳、阴、阴；品牌图位：左上 -->
  <g transform="rotate(315 54 54)" fill="#D9BC7A">
    <path d="M48 24.5h12v2.2H48z"/>
    <path d="M48 28.8h4.3V31H48zM55.7 28.8H60V31h-4.3z"/>
    <path d="M48 33.1h4.3v2.2H48zM55.7 33.1H60v2.2h-4.3z"/>
  </g>
  <!-- 震：阴、阴、阳；品牌图位：右下 -->
  <g transform="rotate(135 54 54)" fill="#D9BC7A">
    <path d="M48 24.5h4.3v2.2H48zM55.7 24.5H60v2.2h-4.3z"/>
    <path d="M48 28.8h4.3V31H48zM55.7 28.8H60V31h-4.3z"/>
    <path d="M48 33.1h12v2.2H48z"/>
  </g>
  <!-- 巽：阳、阳、阴；品牌图位：左下 -->
  <g transform="rotate(225 54 54)" fill="#D9BC7A">
    <path d="M48 24.5h12v2.2H48z"/>
    <path d="M48 28.8h12V31H48z"/>
    <path d="M48 33.1h4.3v2.2H48zM55.7 33.1H60v2.2h-4.3z"/>
  </g>
  <!-- 离：阳、阴、阳；品牌图位：右 -->
  <g transform="rotate(90 54 54)" fill="#D9BC7A">
    <path d="M48 24.5h12v2.2H48z"/>
    <path d="M48 28.8h4.3V31H48zM55.7 28.8H60V31h-4.3z"/>
    <path d="M48 33.1h12v2.2H48z"/>
  </g>
  <!-- 坤：阴、阴、阴；品牌图位：下 -->
  <g transform="rotate(180 54 54)" fill="#D9BC7A">
    <path d="M48 24.5h4.3v2.2H48zM55.7 24.5H60v2.2h-4.3z"/>
    <path d="M48 28.8h4.3V31H48zM55.7 28.8H60V31h-4.3z"/>
    <path d="M48 33.1h4.3v2.2H48zM55.7 33.1H60v2.2h-4.3z"/>
  </g>
  <!-- 兑：阴、阳、阳；品牌图位：右上 -->
  <g transform="rotate(45 54 54)" fill="#D9BC7A">
    <path d="M48 24.5h4.3v2.2H48zM55.7 24.5H60v2.2h-4.3z"/>
    <path d="M48 28.8h12V31H48z"/>
    <path d="M48 33.1h12v2.2H48z"/>
  </g>
  <!-- 乾：阳、阳、阳；品牌图位：上 -->
  <g transform="rotate(0 54 54)" fill="#D9BC7A">
    <path d="M48 24.5h12v2.2H48z"/>
    <path d="M48 28.8h12V31H48z"/>
    <path d="M48 33.1h12v2.2H48z"/>
  </g>

  <!-- 中央太极天池 -->
  <circle cx="54" cy="54" r="16" fill="#15161A" stroke="#B8955A" stroke-width="1.4"/>
  <circle cx="54" cy="54" r="15" fill="#E8E2D4"/>
  <path d="M54 39a15 15 0 0 1 0 30H54Z" fill="#15161A"/>
  <circle cx="54" cy="46.5" r="7.5" fill="#15161A"/>
  <circle cx="54" cy="61.5" r="7.5" fill="#E8E2D4"/>
  <circle cx="54" cy="46.5" r="2.2" fill="#E8E2D4"/>
  <circle cx="54" cy="61.5" r="2.2" fill="#15161A"/>
</svg>
